# xmcd
#
# Track frame offsets: 
#        150
#        2812
#        4827
#        15611
#        16516
#        18851
#        25438
#        27929
#        42029
#        42619
#        43571
#        55703
#        63831
#        72850
#        75380
#        81457
#        94977
#        97087
#        108702
#        110163
#        118520
#        128636
#        139632
#        140259
#        144617
#        146302
#        154113
#        168883
#        170441
#        173321
#        183939
#        186680
#
# Disc length: 2545 seconds
#
# Revision: 0
# Processed by: cddbd v1.5.2PL0 Copyright (c) Steve Scherf et al.
# Submitted via: ExactAudioCopy v0.99pb5
#
DISCID=a309ef20
DTITLE=The Monkees  - The Monkees In Phoenix, AZ - Disc 1 (Guest DJ's 
DTITLE=on KRUX ~ January 20, 1967)
DYEAR=1900
DGENRE=
TTITLE0=(Theme From) The Monkees
TTITLE1=Davy Talks
TTITLE2=Sometime In The Morning
TTITLE3=Davy Talks
TTITLE4=Davy and Bob Shannon Talk
TTITLE5=Mike and Micky's Farm Report
TTITLE6=Micky Talks
TTITLE7=Ruby Tuesday
TTITLE8=Micky Talks
TTITLE9=Micky Talks
TTITLE10=Sugar Pie Honey Bunch
TTITLE11=Mike Talks
TTITLE12=P. S. I Love You
TTITLE13=Micky Talks
TTITLE14=Micky, Davy and Bob Shannon Talk
TTITLE15=Green Green Grass Of Home
TTITLE16=Micky Talks
TTITLE17=Walk Away Renee
TTITLE18=Micky Talks
TTITLE19=When I Grow Up (To Be A Man)
TTITLE20=Micky and Mike Talk
TTITLE21=Last Train To Clarksville
TTITLE22=Micky Talks
TTITLE23=You're Gonna Lose That Girl\\Here, There, and Everywhere (Doubl
TTITLE23=e-Play)
TTITLE24=Mike Talks
TTITLE25=Micky Interviews A Fan
TTITLE26=The Beat Goes On
TTITLE27=Micky Talks
TTITLE28=Mike Talks
TTITLE29=I Want To Hold Your Hand
TTITLE30=The Monkees Chat
TTITLE31=(Theme From) The Monkees (with Davy and Micky Chat)
EXTD=
EXTT0=
EXTT1=
EXTT2=
EXTT3=
EXTT4=
EXTT5=
EXTT6=
EXTT7=
EXTT8=
EXTT9=
EXTT10=
EXTT11=
EXTT12=
EXTT13=
EXTT14=
EXTT15=
EXTT16=
EXTT17=
EXTT18=
EXTT19=
EXTT20=
EXTT21=
EXTT22=
EXTT23=
EXTT24=
EXTT25=
EXTT26=
EXTT27=
EXTT28=
EXTT29=
EXTT30=
EXTT31=
PLAYORDER=
